<?xml version="1.0" standalone="no"?>
<!DOCTYPE svg PUBLIC "-//W3C//DTD SVG 20010904//EN"
 "http://www.w3.org/TR/2001/REC-SVG-20010904/DTD/svg10.dtd">
<svg version="1.0" xmlns="http://www.w3.org/2000/svg"
 width="336.000000pt" height="350.000000pt" viewBox="0 0 336.000000 350.000000"
 preserveAspectRatio="xMidYMid meet">

<g transform="translate(0.000000,350.000000) scale(0.100000,-0.100000)"
fill="#000000" stroke="none">
<path d="M1810 3493 c-8 -3 -37 -16 -65 -28 -27 -12 -90 -39 -140 -60 -49 -21
-96 -43 -102 -48 -9 -6 -13 -42 -13 -113 0 -106 -10 -134 -46 -134 -9 0 -12
-5 -8 -12 4 -6 3 -8 -4 -5 -10 7 -31 -1 -142 -50 -25 -11 -53 -23 -62 -26 -14
-5 -18 -18 -18 -53 0 -25 4 -44 8 -42 80 32 210 93 207 97 -2 4 7 7 18 7 34 2
266 107 260 118 -4 5 -1 6 5 2 6 -3 29 1 51 10 39 15 41 18 41 60 l0 44 -57
-26 c-87 -39 -97 -39 -18 0 39 20 73 35 78 36 4 0 7 -21 7 -48 0 -46 3 -51
136 -207 182 -214 167 -203 161 -127 -5 57 -9 67 -57 122 l-52 60 1 113 2 112
-78 102 c-77 101 -84 107 -113 96z"/>
<path d="M743 3128 l-163 -71 0 -113 0 -112 155 69 c85 38 157 69 160 69 3 0
5 -26 5 -58 l0 -58 147 -172 c88 -103 150 -167 154 -160 4 6 5 18 2 27 -4 12
-3 13 5 3 9 -14 38 -4 187 62 28 13 100 44 162 71 62 27 110 52 107 57 -3 4 1
5 9 3 7 -3 39 6 70 20 56 26 57 27 57 70 l0 43 -102 -43 c-57 -23 -123 -51
-148 -62 -25 -11 -75 -34 -112 -50 -37 -17 -64 -34 -60 -38 4 -5 1 -5 -5 -1
-7 4 -49 -9 -94 -29 -45 -21 -84 -33 -88 -29 -4 5 -31 37 -59 70 l-52 62 0
124 0 125 -76 96 c-42 53 -81 97 -87 96 -7 0 -85 -33 -174 -71z"/>
<path d="M1810 3096 l0 -57 127 -147 c69 -81 137 -158 150 -172 l23 -25 0 57
0 56 -136 158 c-75 88 -142 166 -150 174 -12 12 -14 6 -14 -44z"/>
<path d="M1653 3072 c-72 -31 -129 -61 -126 -66 3 -5 1 -6 -4 -3 -15 10 -184
-64 -176 -76 3 -6 1 -7 -4 -4 -6 4 -37 -4 -69 -17 -59 -24 -59 -24 -62 -70 -2
-25 -1 -46 1 -46 3 0 40 16 83 36 115 52 125 57 284 124 225 96 220 93 220
140 0 22 -3 40 -7 39 -5 0 -67 -26 -140 -57z"/>
<path d="M2660 2993 c-30 -14 -100 -45 -155 -68 l-100 -41 -3 -117 -3 -116
-39 -11 c-22 -6 -77 -27 -123 -46 -45 -20 -92 -40 -104 -45 -20 -7 -37 9 -160
153 -76 89 -144 169 -151 177 -10 13 -12 5 -10 -46 l3 -62 145 -170 c80 -93
147 -165 148 -160 2 5 8 9 13 9 5 0 138 56 296 125 266 116 289 124 301 108 6
-10 76 -93 155 -186 l142 -167 3 55 c3 54 2 56 -63 135 l-65 81 0 118 0 118
-71 91 c-40 52 -79 92 -88 91 -9 0 -41 -12 -71 -26z"/>
<path d="M1705 2967 c-49 -21 -133 -58 -185 -82 -52 -23 -109 -48 -127 -56
-22 -9 -28 -16 -20 -22 8 -6 6 -7 -6 -3 -10 3 -42 -5 -70 -18 -29 -13 -60 -26
-69 -29 -14 -5 -18 -17 -18 -52 0 -25 1 -45 3 -45 4 0 204 88 282 124 28 13
104 47 170 76 66 29 124 56 128 60 5 4 7 25 5 47 l-3 40 -90 -40z"/>
<path d="M1810 2958 l1 -53 141 -163 c149 -172 155 -176 157 -96 1 26 -22 58
-144 198 -80 91 -147 166 -150 166 -3 0 -5 -24 -5 -52z"/>
<path d="M900 2777 l0 -58 147 -170 c117 -134 149 -166 155 -152 3 10 7 15 7
11 1 -3 28 7 61 23 33 16 62 29 65 29 3 0 39 16 82 35 42 20 121 54 175 77 71
29 96 44 86 50 -9 7 -8 8 5 4 10 -3 41 4 68 15 48 21 49 22 49 65 0 24 -1 44
-3 44 -2 0 -55 -23 -117 -51 -63 -28 -140 -61 -170 -74 -87 -36 -190 -81 -254
-109 -32 -15 -60 -26 -61 -24 -14 18 -271 317 -281 328 -12 12 -14 6 -14 -43z"/>
<path d="M1810 2696 l0 -54 147 -170 c91 -105 152 -167 158 -162 5 4 84 41
175 81 451 197 433 190 428 166 -2 -6 54 -77 123 -157 70 -80 138 -158 152
-175 l26 -30 1 59 0 58 -147 172 c-81 94 -150 175 -153 179 -4 5 -133 -46
-286 -114 -154 -67 -289 -125 -301 -130 -20 -7 -38 9 -169 161 -81 94 -148
170 -150 170 -2 0 -4 -24 -4 -54z"/>
<path d="M900 2638 l0 -53 146 -167 c120 -137 149 -165 159 -154 7 7 27 19 44
26 17 7 28 17 24 23 -3 6 -1 7 5 3 15 -9 273 105 265 117 -3 6 -1 7 6 3 10 -7
208 74 239 97 12 9 18 87 6 87 -13 0 -104 -43 -104 -50 0 -3 -7 -7 -15 -7 -8
0 -45 -14 -82 -30 -37 -17 -142 -63 -233 -103 -149 -65 -165 -70 -177 -55 -6
10 -27 34 -45 54 -18 20 -77 87 -131 149 -54 61 -101 112 -103 112 -2 0 -4
-24 -4 -52z"/>
<path d="M1812 2564 l3 -62 145 -165 c86 -99 149 -162 155 -158 15 12 578 261
590 261 6 0 10 -5 10 -11 0 -13 -594 -281 -606 -273 -5 3 -72 77 -149 165 -78
87 -143 159 -146 159 -2 0 -4 -24 -4 -53 l0 -52 146 -166 146 -166 37 17 c167
81 574 260 579 256 3 -4 -1 -13 -9 -20 -14 -14 -584 -277 -597 -275 -4 0 -72
74 -152 164 l-145 165 -3 -55 -3 -55 148 -164 147 -164 56 27 c30 16 166 79
303 141 219 100 284 123 251 90 -15 -15 -594 -282 -603 -278 -4 2 -71 74 -150
161 -78 86 -144 157 -147 157 -2 0 -4 -24 -4 -53 l0 -52 146 -161 146 -161
297 138 c163 77 302 139 309 139 42 0 -24 -37 -288 -161 -162 -76 -299 -138
-305 -138 -5 0 -75 72 -155 159 l-145 160 -3 -55 -3 -55 147 -159 148 -159 35
17 c20 10 86 41 146 70 61 28 180 85 265 125 144 68 192 83 158 50 -12 -12
-473 -235 -561 -272 l-37 -15 -77 84 c-43 46 -110 118 -150 159 l-73 75 0 -55
0 -55 146 -155 c79 -85 149 -154 154 -153 5 2 118 55 252 119 330 158 349 166
356 159 12 -12 -32 -37 -314 -172 l-292 -140 -148 159 -149 159 -3 -50 c-2
-28 1 -57 5 -65 4 -7 71 -79 148 -159 l140 -146 298 145 c164 79 303 144 308
144 38 0 -34 -41 -298 -170 l-300 -147 -144 153 c-79 83 -147 153 -151 153 -5
1 -8 -23 -8 -51 l1 -53 147 -153 147 -153 300 149 c165 82 303 148 307 145 21
-11 -30 -41 -300 -175 l-297 -147 -152 157 -152 157 -1 -56 0 -56 148 -153
147 -152 304 151 c167 84 306 150 308 147 13 -13 -30 -38 -307 -176 l-298
-149 -151 154 -151 155 0 -58 0 -57 148 -148 149 -149 296 151 c162 83 301
151 307 151 38 0 -27 -39 -295 -176 l-300 -153 -152 152 -153 152 0 -55 0 -55
148 -148 149 -149 289 148 c159 81 297 154 307 162 17 15 28 5 167 -133 l150
-150 0 55 -1 55 -154 160 c-84 88 -152 161 -151 162 1 2 71 -66 154 -150 l152
-152 0 56 0 56 -156 161 c-86 89 -152 162 -147 162 4 0 74 -69 155 -152 l147
-153 0 57 1 56 -127 134 c-70 73 -138 147 -152 164 -15 17 42 -40 126 -125
l152 -156 1 57 0 56 -154 164 c-85 89 -152 165 -150 167 2 2 48 -43 101 -100
54 -57 121 -129 150 -159 l53 -55 0 58 0 58 -137 147 c-76 81 -147 158 -157
172 -27 34 79 -73 196 -200 l98 -105 0 58 0 58 -117 127 c-64 70 -135 147
-157 171 -23 24 -36 42 -30 40 7 -2 76 -75 155 -163 l144 -158 3 56 3 56 -144
158 c-137 150 -164 182 -154 182 3 0 70 -72 148 -161 l144 -161 3 56 3 57
-127 142 c-70 78 -141 157 -158 175 -16 17 -26 32 -20 31 5 0 74 -75 154 -165
l145 -165 3 56 3 56 -144 162 c-133 151 -163 187 -155 187 2 0 69 -75 148
-166 l145 -165 3 55 3 56 -157 180 c-87 100 -162 179 -168 176 -25 -10 -446
-196 -509 -225 -38 -17 -70 -31 -72 -31 -2 0 -66 71 -141 158 -76 86 -144 164
-151 172 -12 13 -14 6 -11 -46z"/>
<path d="M901 2439 l0 -124 147 -164 c109 -122 148 -159 152 -146 3 9 9 16 13
16 21 -3 28 0 22 9 -3 6 1 7 9 4 9 -3 16 -2 16 3 0 5 6 10 14 10 27 0 225 96
219 106 -3 6 -1 7 6 3 6 -4 76 22 156 60 l145 67 0 43 c0 34 -3 42 -15 38 -8
-4 -12 -11 -8 -17 3 -6 1 -7 -6 -3 -16 10 -53 -3 -45 -16 4 -6 2 -8 -3 -5 -10
7 -54 -10 -193 -75 -276 -128 -332 -150 -345 -137 -100 109 -276 312 -272 315
2 3 66 -65 142 -150 132 -149 138 -154 156 -138 10 10 35 24 55 31 21 8 74 30
118 51 45 21 153 70 241 110 88 39 164 75 168 79 5 5 7 26 5 48 l-3 40 -129
-58 c-71 -32 -132 -61 -135 -66 -3 -4 -13 -9 -21 -10 -8 -1 -82 -32 -164 -68
-123 -56 -150 -65 -160 -54 -7 8 -66 75 -131 149 -65 74 -126 144 -136 154
-18 19 -18 16 -18 -105z m306 -401 c-3 -8 -6 -5 -6 6 -1 11 2 17 5 13 3 -3 4
-12 1 -19z"/>
<path d="M900 2236 l0 -54 146 -162 c81 -89 150 -157 153 -152 6 9 80 45 269
132 39 18 72 36 72 40 0 4 6 7 13 7 26 0 116 46 110 56 -3 6 -1 7 5 3 7 -4 39
5 72 21 60 27 60 27 60 70 0 24 -2 43 -4 43 -6 0 -102 -43 -231 -105 -66 -31
-147 -68 -180 -82 -33 -14 -80 -35 -105 -48 -86 -43 -72 -50 -229 125 -79 88
-146 160 -148 160 -1 0 -3 -24 -3 -54z"/>
<path d="M900 2103 l1 -58 146 -159 c111 -119 148 -154 153 -141 3 9 8 15 10
13 3 -2 31 8 62 22 39 16 53 27 45 33 -8 6 -6 7 6 3 22 -7 219 83 210 97 -3 6
-1 7 5 3 6 -3 67 20 136 53 l126 60 0 46 0 46 -47 -25 c-56 -29 -388 -185
-462 -216 -28 -13 -49 -26 -46 -30 3 -4 -3 -7 -13 -6 -12 1 -19 -9 -23 -34 -6
-34 -6 -34 -8 -5 -1 30 -24 57 -243 293 l-58 63 0 -58z"/>
<path d="M900 1969 l0 -56 147 -158 c122 -131 148 -154 154 -139 4 11 8 16 8
12 1 -7 76 26 296 132 72 34 167 80 213 101 l82 38 0 45 0 45 -82 -38 c-46
-21 -144 -68 -218 -103 -74 -36 -159 -76 -187 -88 -29 -12 -50 -26 -47 -31 3
-5 -2 -6 -10 -3 -8 3 -23 -3 -33 -13 -17 -17 -20 -15 -104 77 -48 52 -116 127
-153 165 l-65 70 -1 -56z"/>
<path d="M900 1834 l0 -56 146 -154 c104 -109 149 -150 157 -143 12 9 234 119
384 189 40 18 69 38 66 43 -3 6 -1 7 5 3 6 -3 40 8 76 26 l64 31 0 44 c0 24
-1 43 -3 43 -4 0 -484 -231 -547 -263 l-47 -24 -58 61 c-32 34 -100 105 -150
159 l-93 98 0 -57z m307 -306 c-3 -7 -5 -2 -5 12 0 14 2 19 5 13 2 -7 2 -19 0
-25z"/>
<path d="M900 1700 l0 -55 148 -154 147 -155 6 35 c4 21 7 26 8 12 0 -13 2
-23 4 -23 2 0 84 40 183 88 98 49 229 113 290 143 l111 54 1 47 c2 45 1 47
-18 36 -11 -7 -20 -20 -20 -28 0 -11 -3 -12 -8 -3 -7 11 -33 0 -369 -164 -29
-14 -51 -29 -48 -33 3 -5 -3 -6 -12 -4 -10 2 -40 -9 -68 -25 l-50 -29 -152
157 -152 156 -1 -55z"/>
<path d="M900 1564 l0 -59 149 -149 c82 -81 150 -144 152 -140 2 5 123 68 269
139 355 174 326 156 329 210 l2 45 -143 -71 c-79 -39 -214 -106 -300 -149
l-158 -78 -150 155 -150 156 0 -59z"/>
<path d="M900 1430 l0 -55 149 -149 c82 -81 150 -144 152 -140 2 5 138 76 302
158 l297 150 0 43 c0 24 -2 43 -5 43 -3 0 -64 -29 -136 -65 -83 -42 -127 -70
-123 -77 4 -7 3 -8 -5 -4 -14 9 -84 -22 -76 -34 3 -4 -3 -6 -12 -4 -10 2 -67
-23 -128 -54 l-110 -58 -152 150 -153 151 0 -55z m312 -290 c3 -16 1 -30 -4
-30 -4 0 -8 14 -8 30 0 17 2 30 4 30 2 0 6 -13 8 -30z"/>
<path d="M900 1297 l0 -57 148 -145 c95 -95 148 -140 150 -130 2 8 8 13 12 10
13 -8 302 140 293 149 -5 4 -3 6 3 4 6 -1 75 28 153 67 l141 69 0 44 c0 36 -3
43 -16 38 -9 -3 -18 -6 -20 -6 -3 0 -2 -5 2 -12 4 -6 3 -8 -4 -4 -13 8 -163
-65 -156 -76 3 -4 -1 -6 -8 -3 -7 2 -98 -40 -203 -95 l-190 -99 -152 152 -153
152 0 -58z"/>
<path d="M1565 1108 c-126 -65 -229 -122 -227 -128 1 -7 -2 -9 -8 -5 -5 3 -37
-7 -69 -24 l-60 -30 -148 143 -148 144 -3 -51 -3 -52 143 -142 c79 -78 148
-141 153 -139 6 2 9 12 7 22 -2 14 -1 16 6 5 8 -10 48 7 193 82 101 52 231
118 288 148 56 29 105 58 108 65 2 6 3 27 1 46 l-3 34 -230 -118z"/>
<path d="M2713 1166 c2 -12 -75 -56 -298 -171 l-300 -154 -152 152 -153 152 0
-61 0 -61 150 -142 149 -142 293 151 c161 84 299 157 306 163 10 8 47 -24 163
-139 l149 -149 0 55 0 55 -154 154 c-85 85 -154 146 -153 137z"/>
<path d="M1747 1076 c-20 -12 -35 -25 -31 -28 3 -3 -1 -5 -8 -4 -21 2 -227
-107 -221 -118 3 -5 1 -6 -5 -2 -15 9 -213 -94 -205 -107 3 -6 1 -7 -5 -3 -6
4 -26 -1 -43 -10 l-32 -16 -148 148 -149 149 0 -55 0 -55 144 -144 c85 -85
148 -141 155 -137 6 4 8 12 5 18 -4 7 -2 8 5 4 13 -8 149 57 167 80 6 7 13 12
16 9 2 -2 94 42 204 99 l199 104 3 46 c2 25 -1 46 -5 45 -4 0 -25 -11 -46 -23z"/>
<path d="M2710 1026 c-13 -11 -366 -199 -545 -289 l-50 -25 -150 143 -150 143
-3 -52 -3 -51 114 -110 c62 -60 130 -125 149 -144 l36 -33 284 147 c156 82
292 154 302 161 17 12 33 -1 170 -132 l151 -145 3 52 3 53 -148 148 c-129 129
-150 146 -163 134z"/>
<path d="M1757 954 c-16 -8 -25 -20 -21 -26 4 -6 3 -8 -4 -4 -13 8 -123 -44
-116 -56 3 -4 -3 -5 -12 -1 -11 4 -15 2 -11 -4 4 -6 1 -10 -6 -9 -22 2 -317
-155 -310 -166 3 -7 1 -8 -5 -4 -6 4 -25 0 -43 -9 -17 -9 -32 -15 -34 -13 -2
2 -57 55 -122 118 -65 63 -130 126 -145 139 l-28 24 0 -54 1 -54 144 -138 144
-138 41 21 c24 12 38 25 34 32 -4 7 -3 8 4 4 10 -6 151 63 362 178 41 23 96
52 123 66 45 24 47 27 47 67 0 47 -3 49 -43 27z"/>
<path d="M2685 881 c-25 -16 -547 -291 -565 -299 -3 -1 -73 62 -156 141 l-149
144 -3 -51 -3 -52 118 -116 c65 -64 133 -128 151 -143 l32 -27 303 160 302
160 150 -146 150 -147 3 55 4 55 -148 143 c-80 78 -149 142 -153 141 -3 0 -19
-9 -36 -18z"/>
<path d="M1755 826 c-22 -12 -87 -47 -145 -78 -147 -77 -184 -99 -192 -112 -4
-6 -8 -7 -8 -3 0 9 -191 -90 -200 -103 -3 -4 -72 57 -155 136 l-150 143 -3
-52 -3 -51 73 -70 c40 -39 106 -102 146 -140 59 -58 74 -68 82 -56 5 8 10 11
10 7 0 -5 15 0 33 11 31 19 210 116 413 224 149 79 146 76 142 125 l-3 41 -40
-22z"/>
<path d="M2615 678 c-44 -22 -448 -241 -505 -274 -3 -1 -66 51 -140 118 -134
119 -162 138 -202 138 -17 0 -376 -193 -542 -291 l-33 -19 -136 120 c-105 92
-144 120 -165 120 -15 0 -68 -23 -117 -51 -148 -85 -400 -235 -577 -346 -142
-89 -168 -109 -168 -129 0 -13 4 -24 9 -24 21 0 694 291 796 344 l30 16 132
-132 c72 -73 140 -135 150 -139 18 -6 126 23 147 40 6 5 49 29 96 54 47 24
132 70 190 102 58 31 122 66 143 77 l38 19 51 -43 c29 -24 91 -76 138 -117 92
-79 121 -95 158 -86 25 6 213 122 440 272 l143 95 52 -39 c135 -101 207 -153
267 -193 36 -24 76 -54 90 -66 21 -18 187 -133 228 -158 42 -26 -10 36 -160
190 -259 265 -443 434 -470 434 -13 -1 -50 -15 -83 -32z"/>
</g>
</svg>
